<svg width="112" height="88" viewBox="0 0 112 88" fill="none" xmlns="http://www.w3.org/2000/svg">
<path d="M111.897 86.4778C111.165 87.5473 110.199 87.9995 108.864 87.9314C106.836 87.8309 104.798 87.8775 102.766 87.9134C101.09 87.9421 100.261 87.1561 100.039 85.5052C99.4931 81.5141 98.4881 77.6667 96.3275 74.1889C95.5272 72.904 94.5797 72.3441 92.9897 72.3477C76.8461 72.4087 60.699 72.3836 44.5554 72.38C43.8986 72.38 43.0768 72.5666 42.6245 72.2472C41.896 71.7304 41.0776 70.9372 40.909 70.1332C40.6649 68.9955 41.5981 68.3064 42.7466 68.1664C43.3962 68.0875 44.0602 68.1198 44.7169 68.1198C64.8085 68.1198 84.9 68.1198 104.991 68.1198C105.76 68.1198 106.528 68.1198 107.446 68.1198C107.446 65.5751 107.446 63.1705 107.446 60.6689C106.707 60.6689 106.007 60.6689 105.307 60.6689C83.8412 60.6689 62.3751 60.6617 40.909 60.6797C38.3787 60.6833 36.2791 59.8686 35.0947 57.5644C34.5994 56.6025 34.4271 55.4145 34.3446 54.3091C34.2226 52.6546 34.3123 50.9821 34.3123 49.1588C24.6254 49.1588 15.0965 49.1588 5.43836 49.1588C5.43836 55.3751 5.43836 61.6164 5.43836 68.1198C6.46483 68.1198 7.459 68.1198 8.45317 68.1198C13.4168 68.1198 18.3805 68.127 23.3406 68.1162C24.507 68.1126 25.4832 68.3782 25.8816 69.638C26.3051 70.9731 25.4437 72.2041 23.8502 72.3369C22.4828 72.4518 21.0938 72.4769 19.73 72.3549C18.2656 72.2221 17.415 72.8896 16.6685 74.031C14.4648 77.419 13.4994 81.2162 12.8821 85.1355C12.5232 87.4253 12.0566 87.8883 9.77753 87.899C7.86456 87.9098 5.94801 87.8344 4.03863 87.9242C2.70709 87.9924 1.71293 87.5832 0.995117 86.4778C0.995117 62.79 0.995117 39.1023 0.995117 15.4146C1.54424 14.4025 2.09696 13.3903 2.61378 12.4392C2.05748 11.3661 1.5263 10.3396 0.995117 9.31318C0.995117 8.23646 0.995117 7.15975 0.995117 6.08303C1.88161 3.81834 3.04447 1.79411 5.3953 0.710221C8.29166 -0.621317 11.7766 -0.0506581 14.0341 2.17096C16.2773 4.37823 16.9162 7.88832 15.581 10.7811C15.3334 11.3195 15.0068 11.8255 14.594 12.572C17.0202 14.8439 16.166 17.9879 16.4101 21.1499C17.677 21.1499 18.9153 21.0673 20.1355 21.1678C23.2401 21.4191 25.8816 22.6752 27.9776 25.0117C30.411 27.725 32.9126 30.3809 35.2598 33.166C36.2827 34.3791 37.2302 35.7717 37.7685 37.2432C38.2567 38.5711 38.856 38.9049 40.1912 38.9013C57.7667 38.8582 75.3459 38.8475 92.9215 38.8977C95.4805 38.9049 98.0646 39.1059 100.591 39.5079C105.971 40.3692 110.425 42.5514 111.893 48.4303C111.897 61.114 111.897 73.7977 111.897 86.4778ZM38.5761 43.3733C38.5761 46.7398 38.5725 50.0704 38.5761 53.4011C38.5833 56.1036 38.8524 56.3764 41.5658 56.3764C62.5545 56.3764 83.5397 56.3764 104.528 56.3764C104.887 56.3764 105.246 56.3764 105.605 56.3656C106.915 56.3262 107.579 55.6514 107.583 54.3378C107.59 53.0817 107.565 51.8255 107.594 50.5693C107.658 47.7017 106.359 45.6344 103.656 44.8304C101.162 44.0875 98.542 43.3697 95.9722 43.3517C77.2589 43.2046 58.542 43.2369 39.8287 43.2189C39.4841 43.2225 39.1324 43.3051 38.5761 43.3733ZM12.0279 44.5218C12.0279 43.6999 12.0279 43 12.0279 42.2966C12.0279 34.7775 12.0135 27.2548 12.0315 19.7358C12.0422 14.747 12.1714 15.3643 7.57026 15.271C5.85469 15.2351 5.26609 15.9063 5.27686 17.5967C5.33069 26.0705 5.29839 34.5478 5.30557 43.0215C5.30557 43.4845 5.36299 43.9511 5.40247 44.5182C7.59897 44.5218 9.70575 44.5218 12.0279 44.5218ZM31.8358 44.6115C33.5371 44.6259 34.0969 44.1449 34.2441 42.0561C34.3877 40.0175 33.939 38.1261 32.5537 36.5648C29.9013 33.5752 27.2275 30.607 24.5429 27.6461C22.8381 25.7654 20.5878 25.2055 18.201 25.4352C17.5586 25.4962 16.586 26.4078 16.4819 27.0467C16.0727 29.5339 16.4747 31.8955 18.3015 33.8695C20.8103 36.5828 23.2652 39.35 25.7309 42.1028C27.2526 43.8111 29.1584 44.6259 31.8358 44.6115ZM8.44958 83.5419C9.71292 79.7591 10.926 76.1234 12.1284 72.5164C9.9498 72.5164 7.71023 72.5164 5.41324 72.5164C5.41324 76.2598 5.41324 79.8703 5.41324 83.5419C6.57968 83.5419 7.63127 83.5419 8.44958 83.5419ZM100.774 72.502C102.016 76.2454 103.208 79.8416 104.432 83.5384C105.297 83.5384 106.348 83.5384 107.493 83.5384C107.493 79.838 107.493 76.2275 107.493 72.502C105.153 72.502 102.913 72.502 100.774 72.502ZM11.9956 7.66939C12.0099 5.81385 10.4236 4.22749 8.58237 4.2562C6.82015 4.28492 5.30557 5.84257 5.31275 7.62274C5.31992 9.42444 6.81297 10.9103 8.62903 10.9175C10.463 10.9283 11.9812 9.46392 11.9956 7.66939ZM16.4747 38.2445C16.4747 40.6348 16.4747 42.5622 16.4747 44.4536C18.3087 44.4536 20.0171 44.4536 22.0664 44.4536C20.1248 42.2966 18.4379 40.4231 16.4747 38.2445Z" fill="#fff"/>
<path d="M35.7872 70.686C35.0155 71.2387 34.3013 72.1252 33.4615 72.2652C32.1658 72.4841 31.3009 71.5294 31.3116 70.2194C31.3224 68.913 32.1766 67.9655 33.4938 68.2311C34.3336 68.3998 35.0335 69.2683 35.7943 69.8246C35.7908 70.1117 35.7872 70.3989 35.7872 70.686Z" fill="#4E4B66"/>
</svg>
