<svg width="49" height="49" viewBox="0 0 49 49" fill="none" xmlns="http://www.w3.org/2000/svg">
<path d="M22.9589 0C23.9801 0 25.0003 0 26.0214 0C26.1439 0.0277539 26.2645 0.0698633 26.3889 0.0794336C31.8105 0.517754 36.6234 2.47297 40.6372 6.13744C47.3804 12.295 50.2018 19.957 48.4533 28.955C45.4788 44.2675 28.7164 53.0932 13.959 46.1892C13.648 46.0437 13.3695 45.9576 13.0106 46.0418C9.94042 46.7558 6.86453 47.4429 3.79246 48.1492C2.61722 48.4191 1.44869 48.7158 0.27728 49C0.213159 49 0.149995 49 0.0858738 49C0.105014 48.8746 0.116499 48.7473 0.143296 48.6239C1.0563 44.4551 1.97505 40.2881 2.87466 36.1174C2.92251 35.8954 2.8804 35.6092 2.77609 35.4063C0.20646 30.379 -0.610845 25.1106 0.456245 19.5445C2.2947 9.95887 10.4878 1.95234 20.1232 0.385684C21.065 0.233516 22.0134 0.127285 22.9589 0ZM5.09593 43.9306C7.98999 43.275 10.7826 42.6338 13.581 42.0213C13.8422 41.9639 14.1839 42.0175 14.4203 42.1448C19.0571 44.6512 23.9581 45.3862 29.0878 44.2053C42.9322 41.0184 49.5778 25.3125 41.8373 13.3046C37.2149 6.13361 28.5135 2.44809 20.2783 4.25113C14.1896 5.58428 9.53177 8.9492 6.43195 14.3631C4.23556 18.1989 3.4307 22.3534 3.98578 26.7529C4.34562 29.6077 5.33232 32.2443 6.77074 34.7259C6.89994 34.9498 6.97746 35.2743 6.92673 35.5212C6.55732 37.3146 6.14675 39.0986 5.75341 40.8872C5.53521 41.8759 5.32466 42.8683 5.09593 43.9306Z" fill="white"/>
<path d="M17.2387 13.5825C18.5192 13.5825 18.7125 13.7021 19.2063 14.8822C19.7413 16.1598 20.2533 17.447 20.7931 18.7218C20.9548 19.1055 20.9912 19.4778 20.7491 19.8118C20.3404 20.3755 19.9184 20.9325 19.458 21.4541C18.9326 22.0513 18.8953 22.2082 19.2963 22.8772C21.0927 25.8737 23.5867 28.0605 26.831 29.3812C27.4627 29.6386 27.6847 29.6042 28.1211 29.0788C28.681 28.4041 29.2418 27.7294 29.771 27.0317C30.0897 26.6115 30.4591 26.4651 30.9309 26.6891C32.5129 27.4384 34.0939 28.1887 35.6558 28.9783C35.8443 29.073 36.0176 29.4109 36.0156 29.6348C36.0032 31.1038 35.652 32.4121 34.3715 33.3644C32.6086 34.6736 30.7156 34.8104 28.6532 34.3147C23.4479 33.061 19.4408 30.1028 16.3477 25.8096C15.2758 24.3223 14.1819 22.8466 13.6412 21.0579C12.9253 18.6892 13.2412 16.5225 14.9141 14.6266C15.7132 13.7232 16.029 13.5825 17.2387 13.5825Z" fill="white"/>
</svg>
