<svg width="117" height="106" viewBox="0 0 117 106" fill="none" xmlns="http://www.w3.org/2000/svg">
<path d="M0.572266 46.5851C0.999363 45.7488 1.38339 44.8875 1.85715 44.0799C3.35378 41.5353 5.80869 40.8175 8.53637 40.6488C8.89528 40.6273 9.25418 40.6452 9.61309 40.6416C12.1936 40.6344 12.2008 40.6344 12.2008 38.1257C12.2044 28.7367 12.2223 19.3514 12.1936 9.96241C12.1828 6.35183 13.518 3.48417 16.5579 1.45636C21.6436 -1.93888 28.8899 0.903645 30.1389 6.86506C30.4009 8.11046 30.4368 9.46353 30.2645 10.7269C30.0994 11.9328 29.1268 12.5394 27.8742 12.3348C26.6144 12.1266 26.3955 11.2006 26.3919 10.0737C26.3847 5.17103 22.8387 2.71253 18.9159 4.88749C17.2865 5.79193 16.2923 7.25986 16.278 9.09386C16.2134 19.1396 16.2457 29.1854 16.2241 39.2275C16.2205 40.3366 16.7374 40.717 17.7674 40.6488C18.3022 40.6129 18.8441 40.6452 19.3825 40.6452C48.6799 40.6452 77.9809 40.6452 107.278 40.6452C110.325 40.6452 113.118 41.2338 114.858 44.0871C115.343 44.8839 115.716 45.7524 116.14 46.5887C116.14 47.547 116.14 48.5016 116.14 49.4599C115.12 50.9637 114.424 53.1782 113.01 53.8206C110.347 55.0337 110.573 56.9323 110.616 59.0499C110.645 60.306 110.692 61.5658 110.605 62.8148C110.34 66.7556 109.654 70.5923 107.824 74.167C104.971 79.7408 100.531 83.6672 95.1689 86.6999C94.6054 87.0193 93.8589 87.6367 93.823 88.1571C93.6005 91.3083 93.4928 92.9233 97.3403 92.6111C97.5772 92.5931 97.8212 92.647 98.0581 92.6255C101.026 92.3886 104.68 95.468 104.522 99.5236C104.389 102.937 100.965 105.977 97.7099 105.675C96.4071 105.553 95.0792 105.643 93.7656 105.657C85.9091 105.758 79.4058 100.274 78.2322 92.446C78.0061 90.9278 77.421 90.3141 75.8275 90.3213C64.1703 90.3715 52.5094 90.3715 40.8522 90.3213C39.2443 90.3141 38.7131 90.9601 38.4655 92.4675C37.5539 98.0485 34.4421 102.004 29.3313 104.426C25.8823 106.063 22.2142 105.629 18.5965 105.639C14.0169 105.654 10.9051 100.895 12.714 96.6918C14.1138 93.433 16.7804 92.4029 20.1075 92.5967C21.3888 92.6721 22.5157 92.4855 22.8962 90.9888C23.4094 88.9754 22.8495 87.529 21.5575 86.6317C18.9267 84.7977 16.1918 83.0427 13.8518 80.8749C9.99353 77.3038 7.43453 72.839 6.77056 67.5595C6.31834 63.9669 6.31834 60.3204 6.05993 56.7026C6.01686 56.1068 5.84099 55.1414 5.48927 55.0122C2.80107 54.0431 1.60591 51.8395 0.572266 49.4563C0.572266 48.4981 0.572266 47.5434 0.572266 46.5851ZM98.4349 55.4859C98.4349 56.5088 98.4349 57.223 98.4349 57.9409C98.4349 61.6483 98.4601 65.3558 98.4242 69.0633C98.4026 71.1306 97.6812 71.9453 95.8652 71.9489C88.2707 71.9705 80.6763 71.9776 73.0819 71.9489C71.1223 71.9417 70.6593 71.4321 70.6485 69.4832C70.6306 65.4168 70.6018 61.3504 70.6557 57.2841C70.6736 55.9023 70.2178 55.4177 68.7822 55.4429C63.8796 55.5254 58.9769 55.4752 54.0743 55.4752C53.6543 55.4752 53.2344 55.4967 52.8181 55.468C51.5117 55.3854 50.094 54.1975 50.2627 53.1889C50.4924 51.8036 51.3896 51.3119 52.8289 51.337C57.491 51.416 62.1568 51.3801 66.8226 51.3585C70.9105 51.3406 70.6413 51.8718 70.6413 47.4644C70.6413 44.8408 70.566 44.7619 67.9136 44.7619C48.5399 44.7583 29.1662 44.7547 9.78895 44.7726C8.89887 44.7726 7.98725 44.8372 7.12587 45.0418C5.22009 45.4904 4.35513 47.4393 5.10165 49.2374C5.81946 50.9637 7.20124 51.3657 8.86656 51.3657C16.522 51.3621 24.1739 51.3872 31.8293 51.3478C33.1106 51.3406 34.2124 51.8574 34.0689 53.0095C33.9612 53.8852 32.8809 54.7035 32.1021 55.4034C31.8329 55.6474 31.1797 55.4716 30.7024 55.4716C24.4825 55.4752 18.2627 55.4859 12.0465 55.4608C10.9733 55.4572 10.1263 55.5254 10.1945 56.9251C10.356 60.1409 10.155 63.4106 10.6898 66.5582C12.732 78.6102 24.2887 85.8242 34.7687 86.1006C50.1227 86.5061 65.4982 86.28 80.8629 86.1113C89.4336 86.018 96.5399 82.5043 101.963 75.8C106.593 70.079 106.794 63.2993 106.439 56.4191C106.421 56.0889 105.785 55.5362 105.423 55.5218C103.162 55.4465 100.904 55.4859 98.4349 55.4859ZM84.3982 58.7879C87.0864 58.7879 89.7746 58.7663 92.4628 58.7986C93.7297 58.813 94.3183 58.2926 94.3039 56.9898C94.2716 53.5263 94.2681 50.0593 94.3039 46.5959C94.3183 45.293 93.7512 44.7654 92.4807 44.769C87.1043 44.7906 81.7279 44.7906 76.3479 44.769C75.1384 44.7654 74.6826 45.232 74.7077 46.481C74.7759 50.0055 74.7903 53.5335 74.7041 57.0544C74.6682 58.4577 75.2963 58.813 76.513 58.7986C79.1402 58.7735 81.771 58.7915 84.3982 58.7879ZM89.3941 89.162C87.2048 89.5245 85.055 89.8296 82.941 90.289C82.6252 90.3572 82.234 91.1827 82.277 91.6205C82.6216 95.2742 84.6709 97.8798 87.6068 99.8825C90.9697 102.176 94.8064 101.616 98.5067 101.437C99.1815 101.404 100.151 100.062 100.341 99.1826C100.61 97.948 99.6229 97.0543 98.399 96.8067C97.4767 96.6201 96.5004 96.6883 95.5457 96.6811C92.8934 96.6703 90.819 95.2132 90.076 92.6972C89.7674 91.6313 89.6489 90.5043 89.3941 89.162ZM27.1959 89.1333C27.142 89.6717 27.0918 90.0126 27.0774 90.3608C26.9482 94.3267 24.5938 96.9682 20.3515 96.6954C19.5871 96.6452 18.7867 96.699 18.0474 96.8785C16.7553 97.1979 15.9837 98.2746 16.382 99.4159C16.6871 100.292 17.7854 101.419 18.6073 101.487C20.9581 101.681 23.3771 101.591 25.7136 101.243C30.0204 100.597 34.094 96.035 34.4027 91.7246C34.4386 91.2472 34.0186 90.3751 33.6705 90.2962C31.614 89.8224 29.5108 89.5281 27.1959 89.1333ZM84.3443 67.9076C86.9069 67.9076 89.4767 67.7964 92.0321 67.9435C93.9522 68.0548 94.3614 67.1755 94.3219 65.5102C94.2645 62.9081 94.1927 62.7035 92.0536 62.6963C87.4632 62.6748 82.8728 62.6748 78.2824 62.6928C74.1012 62.7071 74.8297 62.4164 74.7149 66.3931C74.679 67.5882 75.1671 67.9435 76.2941 67.922C78.9787 67.8718 81.6633 67.9076 84.3443 67.9076ZM103.966 51.3729C103.966 51.3621 103.966 51.3514 103.966 51.337C105.577 51.337 107.199 51.4375 108.8 51.3119C110.62 51.1683 111.926 49.6789 111.93 47.9956C111.933 46.4308 110.835 45.0849 109.015 44.9772C105.864 44.7906 102.695 44.8229 99.5368 44.8516C99.1707 44.8552 98.5067 45.4222 98.4995 45.7381C98.4672 47.5075 98.2232 49.4348 98.8584 50.9745C99.0989 51.5631 101.482 51.2724 102.893 51.3693C103.248 51.3908 103.61 51.3729 103.966 51.3729Z" fill="#fff"/>
<path d="M64.611 13.3863C64.532 8.32214 69.0112 4.95202 73.2319 5.08123C77.5136 5.21402 81.2714 9.09379 81.2104 13.5047C81.1529 17.8941 77.3557 21.6662 72.9125 21.6842C68.4333 21.6985 64.4531 17.7757 64.611 13.3863ZM77.144 13.3181C77.0901 11.2041 74.9475 9.16557 72.7869 9.16916C70.6693 9.17275 68.5913 11.3836 68.681 13.537C68.7671 15.6007 70.9636 17.7003 72.9232 17.5927C75.2023 17.467 77.1978 15.4464 77.144 13.3181Z" fill="#fff"/>
<path d="M51.2142 31.12C47.3237 31.0303 44.4381 28.2811 44.474 24.7064C44.5099 21.3362 47.9948 17.9697 51.3039 18.1097C54.6741 18.2497 57.7355 21.2824 57.6709 24.4157C57.5884 28.5502 55.0258 31.2097 51.2142 31.12ZM48.7449 24.7387C48.7808 26.1528 49.8001 26.9926 51.3865 26.9711C52.9118 26.9531 53.4645 25.9482 53.5866 24.6812C53.7014 23.504 52.395 22.3627 51.1352 22.3807C49.8145 22.4022 48.7162 23.4861 48.7449 24.7387Z" fill="#fff"/>
<path d="M17.595 64.4226C17.595 64.1283 17.5878 63.8304 17.595 63.5325C17.6237 62.2656 18.2267 61.4904 19.5295 61.4258C20.7426 61.3647 21.3778 62.0251 21.6075 63.1916C23.2657 71.5648 27.7628 75.4159 36.3155 75.7999C37.647 75.8609 38.4187 76.4711 38.4904 77.86C38.5622 79.3387 37.7726 79.8376 36.398 79.8843C31.4559 80.0601 27.167 78.3589 23.4236 75.2795C20.032 72.4908 17.9754 68.8946 17.595 64.4226Z" fill="#fff"/>
<path d="M44.1723 52.7009C44.3051 54.6677 43.3145 55.3604 42.2737 55.3676C41.1252 55.3783 40.1885 54.6318 40.1885 53.2034C40.1885 51.8539 41.0642 51.495 42.1373 51.4017C43.4581 51.2904 44.0754 52.0405 44.1723 52.7009Z" fill="#fff"/>
</svg>
