<svg width="143" height="79" viewBox="0 0 143 79" fill="none" xmlns="http://www.w3.org/2000/svg">
<path d="M0.389648 36.469C1.43765 34.574 2.28467 32.5246 3.58032 30.8162C5.7158 28.0024 8.81315 27.1482 12.2766 27.1985C16.1528 27.2559 16.2604 27.2164 17.5202 23.5915C19.2178 18.7175 20.8472 13.8149 22.29 8.862C23.74 3.87322 26.9845 1.01275 31.9697 0.0508809C32.9244 -0.132161 33.9724 0.237513 34.9773 0.237513C52.133 0.251869 69.2851 0.255457 86.4408 0.24469C93.0733 0.241101 96.3358 2.45914 99.0886 8.54258C100.535 11.7332 102.333 14.766 103.977 17.8669C105.369 20.4941 106.873 23.0746 108.126 25.7664C108.657 26.9078 109.31 27.2308 110.441 27.2272C114.923 27.2128 119.406 27.1913 123.889 27.2846C129.262 27.3959 133.54 29.9154 137.161 33.6767C139.882 36.5013 141.403 39.9432 142.057 43.7943C142.111 44.1209 142.358 44.4116 142.516 44.7202C142.516 46.2743 142.516 47.8319 142.516 49.386C142.236 50.2617 141.924 51.1303 141.68 52.0168C139.541 59.744 133.328 65.6264 125.346 66.5129C123.512 66.7175 121.653 66.696 119.826 66.9544C119.238 67.0369 118.398 67.5681 118.229 68.0778C116.216 74.0787 111.998 77.5959 105.89 78.5686C101.996 79.1895 98.36 77.8041 95.3344 75.2954C93.0231 73.3788 91.2285 71.0208 90.4928 67.9629C90.3815 67.4999 89.391 66.9795 88.788 66.9544C86.2218 66.8396 83.6377 67.0334 81.0823 66.8216C80.185 66.7462 78.9432 66.0069 78.6166 65.2496C78.2936 64.4887 78.7674 63.2505 79.1945 62.3676C79.3847 61.9728 80.3035 61.7718 80.8993 61.7503C83.2286 61.6785 85.5686 61.6211 87.8943 61.7431C89.5991 61.8328 90.4318 61.2873 90.9594 59.5753C92.4058 54.9131 95.6467 51.6327 100.312 50.5524C108.262 48.7113 114.995 51.7476 117.849 59.7799C118.376 61.2658 119.044 61.7 120.504 61.7359C127.302 61.8938 132.646 59.4174 135.7 53.1509C136.609 51.2846 136.827 49.063 137.219 46.9777C137.434 45.8328 136.835 45.2155 135.564 45.2622C133.831 45.3268 132.097 45.2478 130.364 45.2909C129.05 45.3232 128.124 44.7884 127.862 43.5179C127.6 42.2438 127.683 40.9481 129.226 40.4528C130.005 40.2052 130.837 40.0616 131.656 40.0042C132.7 39.9288 133.755 39.9863 134.807 39.9863C134.9 39.8104 134.997 39.631 135.09 39.4551C134.373 38.5794 133.712 37.6462 132.926 36.8351C130.202 34.0141 126.879 32.478 122.931 32.3739C122.392 32.3595 121.854 32.3523 121.316 32.3523C85.1343 32.3523 48.9567 32.3488 12.7755 32.3523C8.79521 32.3523 6.9612 33.6049 5.88808 37.0002C5.13079 39.4012 5.55429 39.9791 8.08816 39.9863C10.5395 39.9934 12.9944 39.954 15.4421 40.0042C17.5345 40.0473 18.6974 41.045 18.7333 42.6888C18.7656 44.1998 17.7822 45.2658 16.264 45.2765C13.3354 45.2981 10.4031 45.3375 7.47444 45.2514C6.0424 45.2083 5.58301 45.7467 5.6189 47.1285C5.69068 49.8777 5.59736 52.6305 5.6512 55.3797C5.71939 58.879 8.19225 61.4165 11.7023 61.6928C16.6445 62.0769 16.5188 62.0087 18.8733 57.6588C21.3497 53.1007 25.1039 50.4268 30.5377 50.1074C36.6462 49.7485 40.9136 52.408 44.0325 57.3824C44.1868 57.63 44.3304 57.892 44.4381 58.1612C45.8558 61.7144 45.8522 61.7144 49.6924 61.7144C51.6054 61.7144 53.522 61.761 55.4313 61.7072C56.8706 61.6677 57.714 62.4142 57.9903 63.6776C58.2954 65.0558 57.7535 66.172 56.3071 66.6099C55.6933 66.7965 55.0258 66.8862 54.3833 66.897C52.0505 66.9293 49.7176 66.9688 47.3883 66.8862C46.2003 66.8431 45.5184 67.1841 45.1595 68.3793C43.3219 74.4591 38.8858 77.6677 32.9029 78.6152C29.3748 79.1715 26.0514 77.8615 23.0689 75.8194C20.3843 73.9818 18.7943 71.3833 17.7965 68.3972C17.3982 67.2056 16.7773 66.9077 15.6 66.8754C13.2851 66.8108 10.9343 66.7534 8.67318 66.3048C5.23128 65.6229 2.92352 63.3869 1.54173 60.1819C1.17565 59.3277 0.773677 58.4914 0.389648 57.6444C0.389648 50.5847 0.389648 43.5287 0.389648 36.469ZM59.0419 26.775C61.5004 27.5394 101.292 27.342 102.502 26.6242C102.434 26.4161 102.39 26.1792 102.283 25.9746C99.347 20.3183 96.4291 14.6511 93.4573 9.01274C92.2371 6.69422 90.2775 5.20835 87.6323 5.17246C80.8167 5.07556 73.9975 5.15451 67.1819 5.12221C66.0765 5.11862 65.5919 5.62827 65.3084 6.62602C64.7413 8.62154 64.0953 10.5919 63.478 12.5695C62.0137 17.2712 60.5422 21.9728 59.0419 26.775ZM39.3847 26.8001C39.819 26.9795 40.0271 27.1446 40.2389 27.1482C44.2981 27.1733 48.3573 27.2308 52.413 27.1195C52.9298 27.1052 53.6907 26.2725 53.8881 25.6731C55.9446 19.4282 57.8898 13.1437 59.9141 6.88803C60.3268 5.6175 60.0289 5.11503 58.6758 5.1258C54.9755 5.1581 51.2716 5.15092 47.5713 5.1258C46.5879 5.11862 46.0962 5.47394 45.8091 6.47169C45.2061 8.57488 44.3986 10.6171 43.7418 12.7059C42.2882 17.3465 40.8706 21.9979 39.3847 26.8001ZM28.0899 27.1985C28.0935 27.2415 28.0935 27.281 28.0971 27.3241C29.8773 27.2128 32.0451 27.6794 33.3228 26.8216C34.4856 26.0428 34.6794 23.8212 35.3004 22.2384C35.365 22.0733 35.4583 21.9154 35.5121 21.7467C37.1021 16.7148 38.692 11.6866 40.2784 6.65474C40.6409 5.50983 40.1169 5.1258 39.0366 5.14016C37.1846 5.16169 35.3219 5.03607 33.4771 5.17605C30.5413 5.40216 28.3663 6.90238 27.4332 9.73055C25.6817 15.028 24.0953 20.3757 22.4049 25.6911C22.0747 26.7247 22.4013 27.1841 23.4278 27.1949C24.9782 27.2128 26.5323 27.1985 28.0899 27.1985ZM31.557 55.3402C26.0119 55.3546 22.2649 59.3097 22.3546 65.0594C22.4192 69.1617 27.2178 73.7305 31.5283 73.4829C35.7346 73.2388 40.8347 70.5183 40.5475 63.2649C40.404 59.5394 36.3017 54.7121 31.557 55.3402ZM104.307 55.3474C98.6435 54.967 95.2375 60.0562 95.1944 64.2554C95.1442 68.9858 99.6485 73.709 104.282 73.4614C109.296 73.1958 113.323 69.9118 113.427 64.1872C113.513 59.3815 109.436 54.9167 104.307 55.3474Z" fill="#fff"/>
<path d="M66.856 45.2874C65.7218 45.2874 64.5877 45.291 63.45 45.2874C61.7703 45.2838 60.306 44.2394 60.1552 42.9366C60.0188 41.7558 61.5011 40.1371 63.0982 40.0653C65.7182 39.9469 68.3562 39.9469 70.9762 40.0868C72.5446 40.1694 73.5424 41.4579 73.4562 42.8109C73.345 44.5337 72.5662 45.2156 70.6209 45.2838C70.5599 45.2874 70.5024 45.2838 70.4414 45.2838C69.2463 45.2838 68.0511 45.2838 66.856 45.2874Z" fill="#fff"/>
<path d="M70.6052 64.4744C70.5944 65.9926 69.7367 66.8109 68.1359 66.8324C66.8295 66.8467 65.3975 65.5224 65.4262 64.3236C65.4513 63.2936 67.1489 61.6606 68.1898 61.6677C69.4711 61.6821 70.616 63.0136 70.6052 64.4744Z" fill="#fff"/>
<path d="M34.0085 64.3989C34.0193 65.7986 33.0072 66.7892 31.5321 66.8287C30.0821 66.8682 28.8869 65.7627 28.8654 64.363C28.8475 63.2217 30.3333 61.6748 31.4603 61.6605C32.6483 61.6497 34.0013 63.1033 34.0085 64.3989Z" fill="#fff"/>
<path d="M101.949 64.4888C101.999 62.7696 103.058 61.5852 104.461 61.6749C105.696 61.7539 106.898 63.0639 106.866 64.2878C106.823 65.8239 105.775 66.8468 104.253 66.8396C102.933 66.836 101.913 65.7952 101.949 64.4888Z" fill="#fff"/>
</svg>
