<svg width="30" height="36" viewBox="0 0 30 36" fill="none" xmlns="http://www.w3.org/2000/svg">
<path d="M0.0013539 0.721815C0.299212 0.170777 0.756831 -0.00658401 1.38098 0.000185498C3.88434 0.0272635 6.38771 0.00966335 8.89107 0.0123712C9.79954 0.0137251 10.1543 0.365739 10.1543 1.2715C10.1556 5.3657 10.1556 9.45854 10.1556 13.5527C10.1556 13.7545 10.1556 13.9549 10.1556 14.2283C10.4278 14.2283 10.6742 14.2283 10.9192 14.2283C11.9509 14.2283 12.9826 14.227 14.0142 14.2283C14.8496 14.2297 15.3208 14.5898 15.3289 15.2302C15.337 15.8842 14.8523 16.2578 13.9899 16.2592C12.7389 16.2605 11.4879 16.2592 10.1949 16.2592C10.1949 16.924 10.1949 17.5711 10.1949 18.29C10.3614 18.29 10.5401 18.29 10.7188 18.29C15.6917 18.29 20.666 18.29 25.6388 18.29C25.7742 18.29 25.9096 18.2968 26.045 18.2846C26.596 18.2345 26.9982 17.8148 27.0063 17.2895C27.0144 16.7452 26.5988 16.2863 26.0233 16.2687C25.1785 16.2443 24.3323 16.2714 23.4861 16.2538C22.8728 16.2416 22.4409 15.8016 22.445 15.237C22.449 14.6724 22.8809 14.2595 23.4983 14.2297C23.5322 14.2283 23.566 14.2283 23.5999 14.2283C24.4122 14.2283 25.2245 14.2175 26.0355 14.2324C27.4368 14.2568 28.6228 15.2086 28.9464 16.5489C29.2795 17.9286 28.6648 19.3244 27.3908 19.9635C27.051 20.1341 26.9453 20.3426 26.9101 20.6932C26.4187 25.5686 22.2256 29.8009 17.3326 30.375C17.1851 30.3926 17.0389 30.4197 16.8561 30.4481C16.8561 31.5745 16.829 32.6725 16.8669 33.7665C16.8886 34.392 16.6936 34.8469 16.1453 35.1475C12.3544 35.1475 8.56343 35.1475 4.7725 35.1475C4.22282 34.8483 4.03192 34.3934 4.05087 33.7665C4.08743 32.5331 4.03733 31.2956 4.06847 30.0609C4.10097 28.7611 3.59055 27.8188 2.42078 27.2217C1.6829 26.8454 1.07364 26.2903 0.693198 25.5537C0.403463 24.9905 0.227455 24.3691 0 23.7733C0.0013539 16.0886 0.0013539 8.40521 0.0013539 0.721815ZM14.8266 33.1017C14.8266 31.9496 14.8252 30.8367 14.8266 29.7237C14.8279 28.8099 15.1678 28.4606 16.0681 28.4389C20.0716 28.3441 23.5972 25.593 24.6491 21.7317C24.771 21.2862 24.8346 20.8245 24.9307 20.348C17.2528 20.348 9.6628 20.348 2.03085 20.348C2.03085 21.1346 2.06199 21.8941 2.02408 22.6496C1.95503 24.0319 2.51284 24.9919 3.74489 25.6553C5.02027 26.3431 5.83532 27.4614 5.99508 28.9101C6.12505 30.0974 6.06819 31.3065 6.0912 32.506C6.09526 32.701 6.0912 32.8959 6.0912 33.1017C9.02782 33.1017 11.8859 33.1017 14.8266 33.1017ZM8.08956 18.2643C8.08956 14.1945 8.08956 10.1639 8.08956 6.14284C6.05329 6.14284 4.05223 6.14284 2.05793 6.14284C2.05793 10.2018 2.05793 14.2216 2.05793 18.2643C4.07254 18.2643 6.06277 18.2643 8.08956 18.2643ZM8.10175 2.07843C6.05871 2.07843 4.059 2.07843 2.07282 2.07843C2.07282 2.7635 2.07282 3.41066 2.07282 4.04564C4.10232 4.04564 6.0912 4.04564 8.10175 4.04564C8.10175 3.38359 8.10175 2.74725 8.10175 2.07843Z" fill="white"/>
<path d="M19.9001 15.2452C19.8974 15.8057 19.4181 16.2701 18.8589 16.2539C18.3174 16.2376 17.8746 15.7786 17.876 15.2384C17.8773 14.6779 18.3566 14.2149 18.9158 14.2311C19.4573 14.246 19.9028 14.7063 19.9001 15.2452Z" fill="white"/>
<path d="M6.09231 10.1748C6.09231 10.5119 6.10585 10.8491 6.08825 11.1862C6.05846 11.7656 5.63469 12.184 5.09313 12.1921C4.53261 12.2002 4.08447 11.7697 4.06823 11.1659C4.05063 10.493 4.04927 9.81738 4.06958 9.14449C4.08718 8.56367 4.51908 8.14666 5.06334 8.13854C5.62521 8.13042 6.06252 8.5596 6.0896 9.1648C6.10585 9.50057 6.09366 9.83769 6.09231 10.1748Z" fill="white"/>
</svg>
